<?xml version="1.0" encoding="utf-8"?>
<!-- Generator: Adobe Illustrator 22.0.1, SVG Export Plug-In . SVG Version: 6.00 Build 0)  -->
<svg version="1.1" xmlns="http://www.w3.org/2000/svg" xmlns:xlink="http://www.w3.org/1999/xlink" x="0px" y="0px"
	 viewBox="0 0 433.8 116.8" style="enable-background:new 0 0 433.8 116.8;" xml:space="preserve">
<style type="text/css">
	.st0{display:none;}
	.st1{display:inline;fill:#151C3F;}
	.st2{fill:#FFD430;}
	.st3{fill:#FFFFFF;}
	.st4{fill:#20AF98;}
	.st5{fill-rule:evenodd;clip-rule:evenodd;fill:#FFD430;}
	.st6{fill:url(#SVGID_1_);}
	.st7{fill:url(#SVGID_2_);}
	.st8{fill:url(#SVGID_3_);}
	.st9{fill:url(#SVGID_4_);}
	.st10{fill-rule:evenodd;clip-rule:evenodd;fill:url(#SVGID_5_);}
	.st11{fill-rule:evenodd;clip-rule:evenodd;fill:url(#SVGID_6_);}
	.st12{fill:url(#SVGID_7_);}
	.st13{fill:url(#SVGID_8_);}
	.st14{fill:url(#SVGID_9_);}
	.st15{fill:url(#SVGID_10_);}
	.st16{opacity:0.3;fill:url(#SVGID_11_);}
	.st17{fill:url(#SVGID_12_);}
	.st18{fill:url(#SVGID_13_);}
	.st19{fill:url(#SVGID_14_);}
	.st20{fill:url(#SVGID_15_);}
	.st21{fill:url(#SVGID_16_);}
	.st22{fill-rule:evenodd;clip-rule:evenodd;fill:url(#SVGID_17_);}
	.st23{fill-rule:evenodd;clip-rule:evenodd;fill:url(#SVGID_18_);}
	.st24{fill:url(#SVGID_19_);}
	.st25{fill:url(#SVGID_20_);}
	.st26{fill:url(#SVGID_21_);}
	.st27{fill:url(#SVGID_22_);}
	.st28{opacity:0.3;fill:url(#SVGID_23_);}
	.st29{fill:url(#SVGID_24_);}
	.st30{opacity:0.35;fill:#FFD430;}
	.st31{fill:url(#SVGID_25_);}
	.st32{fill:url(#SVGID_26_);}
	.st33{fill:url(#SVGID_27_);}
	.st34{fill:url(#SVGID_28_);}
	.st35{fill-rule:evenodd;clip-rule:evenodd;fill:url(#SVGID_29_);}
	.st36{fill-rule:evenodd;clip-rule:evenodd;fill:url(#SVGID_30_);}
	.st37{fill:url(#SVGID_31_);}
	.st38{fill:url(#SVGID_32_);}
	.st39{fill:url(#SVGID_33_);}
	.st40{fill:url(#SVGID_34_);}
	.st41{opacity:0.3;fill:url(#SVGID_35_);}
	.st42{fill:url(#SVGID_36_);}
	.st43{opacity:0.35;}
	.st44{opacity:0.95;fill:#FFD430;}
	.st45{opacity:0.5;}
	.st46{fill:url(#SVGID_37_);}
	.st47{fill:url(#SVGID_38_);}
	.st48{fill:url(#SVGID_39_);}
	.st49{fill:url(#SVGID_40_);}
	.st50{fill-rule:evenodd;clip-rule:evenodd;fill:url(#SVGID_41_);}
	.st51{fill-rule:evenodd;clip-rule:evenodd;fill:url(#SVGID_42_);}
	.st52{fill:url(#SVGID_43_);}
	.st53{fill:url(#SVGID_44_);}
	.st54{fill:url(#SVGID_45_);}
	.st55{fill:url(#SVGID_46_);}
	.st56{opacity:0.3;fill:url(#SVGID_47_);}
	.st57{fill:url(#SVGID_48_);}
	.st58{fill:url(#SVGID_49_);}
	.st59{fill:url(#SVGID_50_);}
	.st60{fill:url(#SVGID_51_);}
	.st61{fill:url(#SVGID_52_);}
	.st62{fill-rule:evenodd;clip-rule:evenodd;fill:url(#SVGID_53_);}
	.st63{fill-rule:evenodd;clip-rule:evenodd;fill:url(#SVGID_54_);}
	.st64{fill:url(#SVGID_55_);}
	.st65{fill:url(#SVGID_56_);}
	.st66{fill:url(#SVGID_57_);}
	.st67{fill:url(#SVGID_58_);}
	.st68{opacity:0.3;fill:url(#SVGID_59_);}
	.st69{fill:url(#SVGID_60_);}
	.st70{fill:none;stroke:#394442;stroke-width:0.5;stroke-miterlimit:10;}
	.st71{fill:#231F20;}
	.st72{fill-rule:evenodd;clip-rule:evenodd;fill:#FFFFFF;}
	.st73{fill:url(#SVGID_61_);}
	.st74{fill:url(#SVGID_62_);}
	.st75{fill:url(#SVGID_63_);}
	.st76{fill:url(#SVGID_64_);}
	.st77{fill-rule:evenodd;clip-rule:evenodd;fill:url(#SVGID_65_);}
	.st78{fill-rule:evenodd;clip-rule:evenodd;fill:url(#SVGID_66_);}
	.st79{fill:url(#SVGID_67_);}
	.st80{fill:url(#SVGID_68_);}
	.st81{fill:url(#SVGID_69_);}
	.st82{fill:url(#SVGID_70_);}
	.st83{opacity:0.3;fill:url(#SVGID_71_);}
	.st84{fill:url(#SVGID_72_);}
	.st85{fill:url(#SVGID_73_);}
	.st86{fill:url(#SVGID_74_);}
	.st87{fill:url(#SVGID_75_);}
	.st88{fill:url(#SVGID_76_);}
	.st89{fill-rule:evenodd;clip-rule:evenodd;fill:url(#SVGID_77_);}
	.st90{fill-rule:evenodd;clip-rule:evenodd;fill:url(#SVGID_78_);}
	.st91{fill:url(#SVGID_79_);}
	.st92{fill:url(#SVGID_80_);}
	.st93{fill:url(#SVGID_81_);}
	.st94{fill:url(#SVGID_82_);}
	.st95{opacity:0.3;fill:url(#SVGID_83_);}
	.st96{fill:url(#SVGID_84_);}
	.st97{fill-rule:evenodd;clip-rule:evenodd;fill:#231F20;}
	.st98{fill:url(#SVGID_85_);}
	.st99{fill:url(#SVGID_86_);}
	.st100{fill:url(#SVGID_87_);}
	.st101{fill:url(#SVGID_88_);}
	.st102{fill-rule:evenodd;clip-rule:evenodd;fill:url(#SVGID_89_);}
	.st103{fill-rule:evenodd;clip-rule:evenodd;fill:url(#SVGID_90_);}
	.st104{fill:url(#SVGID_91_);}
	.st105{fill:url(#SVGID_92_);}
	.st106{fill:url(#SVGID_93_);}
	.st107{fill:url(#SVGID_94_);}
	.st108{opacity:0.3;fill:url(#SVGID_95_);}
	.st109{fill:url(#SVGID_96_);}
	.st110{fill:url(#SVGID_97_);}
	.st111{fill:url(#SVGID_98_);}
	.st112{fill:url(#SVGID_99_);}
	.st113{fill:url(#SVGID_100_);}
	.st114{fill-rule:evenodd;clip-rule:evenodd;fill:url(#SVGID_101_);}
	.st115{fill-rule:evenodd;clip-rule:evenodd;fill:url(#SVGID_102_);}
	.st116{fill:url(#SVGID_103_);}
	.st117{fill:url(#SVGID_104_);}
	.st118{fill:url(#SVGID_105_);}
	.st119{fill:url(#SVGID_106_);}
	.st120{opacity:0.3;fill:url(#SVGID_107_);}
	.st121{fill:url(#SVGID_108_);}
	.st122{fill:none;stroke:#20AF98;stroke-width:5;stroke-miterlimit:10;}
	.st123{fill:url(#SVGID_109_);}
	.st124{fill:url(#SVGID_110_);}
	.st125{fill:url(#SVGID_111_);}
	.st126{fill:url(#SVGID_112_);}
	.st127{fill-rule:evenodd;clip-rule:evenodd;fill:url(#SVGID_113_);}
	.st128{fill-rule:evenodd;clip-rule:evenodd;fill:url(#SVGID_114_);}
	.st129{fill:url(#SVGID_115_);}
	.st130{fill:url(#SVGID_116_);}
	.st131{fill:url(#SVGID_117_);}
	.st132{fill:url(#SVGID_118_);}
	.st133{opacity:0.3;fill:url(#SVGID_119_);}
	.st134{fill:url(#SVGID_120_);}
	.st135{fill:url(#SVGID_121_);}
	.st136{fill:url(#SVGID_122_);}
	.st137{fill:url(#SVGID_123_);}
	.st138{fill:url(#SVGID_124_);}
	.st139{fill-rule:evenodd;clip-rule:evenodd;fill:url(#SVGID_125_);}
	.st140{fill-rule:evenodd;clip-rule:evenodd;fill:url(#SVGID_126_);}
	.st141{fill:url(#SVGID_127_);}
	.st142{fill:url(#SVGID_128_);}
	.st143{fill:url(#SVGID_129_);}
	.st144{fill:url(#SVGID_130_);}
	.st145{opacity:0.3;fill:url(#SVGID_131_);}
	.st146{fill:url(#SVGID_132_);}
</style>
<g id="Layer_2" class="st0">
	<rect x="-5040.6" y="-1370.7" class="st1" width="12408.3" height="5037.3"/>
</g>
<g id="Layer_1">
	<g>
		<path class="st3" d="M66.9,44.1c0,1.8-1,4-1.6,5.7l1.3,0.4c0.5-1.7,0.9-4.2,2.2-5.5c2.2-2.3,5.3-3.9,9.4-3.9
			c8.7,0,15,7.5,15.2,16.2c0.2,9-6.1,16.1-15.3,16.1c-4,0-7.1-1.4-9.4-3.8c-1.3-1.3-1.6-3.8-2.1-5.5l-1.3,0.4
			c0.5,1.8,1.6,3.9,1.6,5.7v2.2l-7.4-0.1V28l7.4,0.1V44.1z M86,57.2c0-5.2-3.2-9.4-8.8-9.4c-5.7,0-8.8,4.3-8.8,9.4
			c0,5.1,3.2,8.9,8.8,8.9C82.8,66.2,86,62.3,86,57.2z"/>
		<path class="st3" d="M96.5,28.1h7.4V36h-7.4V28.1z M96.5,40.7h7.4v31.5h-7.4V40.7z"/>
		<path class="st3" d="M122.6,73.2c-9.2,0-15.7-7.3-15.7-16.4c0-9.1,6.5-15.9,15.7-15.9c4.2,0,7.6,1.4,9.9,3.8
			c1.3,1.3,1.6,3.8,2.3,5.5l1.3-0.4c-0.7-1.8-1.8-3.8-1.9-5.7l-0.1-2.3h7.5V73c-0.1,8.3-4.8,14.4-17.5,14.4
			c-10.3,0-15.8-4.9-16.4-12.4h7.9c0.7,4.4,4,5.5,8.1,5.5c7.2,0,10.3-3.1,10.3-8.3c0-1,0-1.8,0.1-2.6c0.1-1.8,1.3-3.8,1.9-5.5
			l-1.3-0.5c-0.6,1.7-0.9,4.1-2.1,5.4C130.3,71.6,126.8,73.2,122.6,73.2z M123.5,66c5.7,0,8.9-3.4,9.2-8.2v-1.5
			c-0.3-4.7-3.5-8.2-9.2-8.2c-6,0-9.2,3.9-9.2,9C114.3,62.2,117.5,66,123.5,66z"/>
		<path class="st3" d="M227.3,40.9c6.2,0,11,3.5,11,10.5v20.9h-7.5V56.7c0-5.8-2.1-8.5-6.6-8.5c-4.9,0-9,2.6-9,8.5v15.5h-7.4V41.8
			h7.4v0.5c0,2.4-1.2,5.4-2.1,7.7l1.3,0.5c0.9-2.3,1.8-5.6,3.7-7.1C220.7,41.3,223.4,40.9,227.3,40.9z"/>
		<path class="st3" d="M267.9,28.1l7.5-0.1v44.1l-7.5,0.1V70c0-1.8,1-4,1.6-5.7l-1.3-0.4c-0.5,1.8-0.9,4.3-2.1,5.5
			c-2.3,2.4-5.4,3.8-9.4,3.8c-9.1,0-15.4-7.1-15.2-16.1c0.2-8.8,6.4-16.2,15.2-16.2c4.1,0,7.2,1.6,9.4,4c1.3,1.3,1.6,3.8,2.3,5.5
			l1.3-0.4c-0.6-1.8-1.6-3.9-1.6-5.7V28.1z M266.5,57.2c0-5.2-3.2-9.4-8.9-9.4c-5.7,0-8.8,4.3-8.8,9.4c0,5.1,3,8.9,8.8,8.9
			C263.3,66.2,266.5,62.3,266.5,57.2z"/>
		<path class="st3" d="M278.4,56.8c0-9.1,7.2-15.9,17.5-15.9c10.6,0,17.2,7.4,17.1,15.8c0,0.6,0,2.1-0.1,2.6l-25.6-0.1
			c0,3.3,3,7.5,9.3,7.5c4.1,0,6.6-1.8,7.2-3.3h8.5c-0.9,3.2-5.4,9.7-15,9.7C285,73.2,278.4,65.9,278.4,56.8z M304.3,54.2
			c0-4.2-3.1-7.5-8.2-7.5c-5.2,0-8.8,3.7-8.8,7.5H304.3z"/>
		<path class="st3" d="M338.9,40.9v6.9c-7.5,0-15.4,2.7-15.4,11.1v13.3h-7.4V41.8h7.4v0.9c0,2.3-1.3,5.1-2.2,7.2l1.3,0.5
			c0.9-2.1,1.9-5.2,3.8-6.6C329.6,41.4,332.9,40.9,338.9,40.9z"/>
		<g>
			<g>
				<path class="st72" d="M172.8,53.9L188,54l5.7-6.4l-3.9-6.2c-0.6-0.9-1.6-1.3-2.6-1.1L170.5,44c-1.7,0.4-2.4,2.3-1.5,3.7
					L172.8,53.9z"/>
				<path class="st72" d="M199.6,57l-4.9-7.8l-4.7,7.5l-0.4,0.6l-0.9,0l-13.6,0.4l8.4,13.5c0.8,1.3,2.7,1.5,3.8,0.5L199.2,60
					C200.1,59.2,200.2,58,199.6,57z"/>
			</g>
			<path class="st72" d="M201.7,75L201.7,75c-0.4,1.2-0.8,2.3-1.4,3.4c0,0.1-0.1,0.2-0.1,0.3c0,0.1-0.1,0.2-0.1,0.3
				c0,0,0,0.1-0.1,0.1c0,0,0,0,0,0.1c-1.7,3-4.1,5.4-7.3,6.9c-5.7,2.8-12.6,2.4-19.2-0.5c-2.7-1.2-5.3-2.7-7.8-4.7l-0.6-0.5
				l-3.2,2.4l-0.1,0.1l-0.6,0.4l-7.3,5.5l2.4-11.5l0.9-4.5l0.1-0.6c-0.1-0.1-0.2-0.3-0.3-0.4c0,0,0,0,0,0
				c-3.2-4.8-5.7-11.3-6.6-16.3c0-0.2-0.1-0.4-0.1-0.5c0,0,0,0,0,0c-0.9-7.6,1-14.5,5.6-18.9c1.2-1.2,2.6-2.2,4.3-3
				c7.4-3.6,17-1.8,25.2,3.9c0,0,0,0,0.1,0c-5.9-3.1-12.2-3.9-17.3-1.4c-6.8,3.3-9.5,11.6-7.3,20.4c0.6,2.4,1.5,4.8,2.8,7.2
				c0.3,0.6,0.6,1.1,1,1.7c1.7,2.7,3.7,5.1,5.9,7.2c0.8,0.8,1.7,1.5,2.6,2.2c3.8,2.8,8,4.6,12,5.1c3.2,0.4,6.3,0,9-1.4
				c5.7-2.8,8.5-9,8-16.1c0,0,0,0,0,0.1c0.2,1.2,0.4,2.5,0.5,3.7c0,0.2,0,0.4,0,0.6C202.8,68.7,202.6,71.8,201.7,75z"/>
			<path class="st3" d="M166.6,29c-2.7,0.2-5.2,0.9-7.5,2.1c-8.1,4-12.4,13.1-11.1,23.8l0,0.4l0.1,0.1c0,0.2,0.1,0.5,0.1,0.7
				c0.9,4.5,2.8,9.6,5.2,13.9c0,0,0,0.1,0,0.1c0.5,0.8,0.9,1.6,1.4,2.3l-2.2,14.7l0.4-8.7l0.3-5.8c0,0,0,0,0-0.1
				c-0.4-0.7-0.8-1.4-1.3-2.3c-0.3-0.5-0.6-1-0.9-1.4c-0.8-1.4-1.6-2.9-2.2-4.4c-0.1-0.3-0.2-0.5-0.3-0.8c-1-2.1-1.7-4.2-2.1-6
				c-0.1-0.4-0.1-0.8-0.2-1.1c0,0,0,0,0,0c-0.1-0.5-0.2-0.9-0.3-1.4c0,0,0,0,0,0c0,0,0-0.1,0-0.1l0,0c0,0,0-0.1,0-0.1v0l-0.1-1.3
				l-0.1-0.6l0-0.6l-0.1-1.3l0-1.3l0-0.6l0-0.7c0-0.4,0.1-0.9,0.1-1.3c0.1-0.9,0.2-1.7,0.4-2.6c0.2-0.9,0.4-1.7,0.7-2.6
				c0.3-0.8,0.6-1.7,1-2.5c0.4-0.8,0.8-1.6,1.3-2.4l0.8-1.1c0.3-0.4,0.6-0.7,0.9-1.1c1.2-1.4,2.7-2.7,4.3-3.7l1.3-0.7
				c0.2-0.1,0.4-0.2,0.7-0.3l0.3-0.1l0.3-0.1c0.9-0.4,1.9-0.6,2.8-0.8c1.9-0.4,3.9-0.5,5.8-0.3C166.5,29,166.6,29,166.6,29z"/>
			
				<linearGradient id="SVGID_1_" gradientUnits="userSpaceOnUse" x1="463.2806" y1="70.7706" x2="456.1853" y2="59.3444" gradientTransform="matrix(1 0 0 1 -300 0)">
				<stop  offset="0" style="stop-color:#916527"/>
				<stop  offset="1" style="stop-color:#FCF4A4;stop-opacity:0"/>
			</linearGradient>
			<path class="st6" d="M160.9,55.9l-3.5,16.2l0,0c-0.1-0.1-0.2-0.3-0.3-0.4c0,0,0,0,0,0c0,0-0.1-0.1-0.1-0.1l0,0
				c-3.2-4.8-5.6-11.2-6.5-16.2L160.9,55.9z"/>
			
				<linearGradient id="SVGID_2_" gradientUnits="userSpaceOnUse" x1="463.1832" y1="80.2163" x2="474.8632" y2="79.8136" gradientTransform="matrix(1 0 0 1 -300 0)">
				<stop  offset="0" style="stop-color:#916527"/>
				<stop  offset="1" style="stop-color:#FCF4A4;stop-opacity:0"/>
			</linearGradient>
			<path class="st7" d="M185.1,79.3l-11.7,6.2c-2.7-1.2-5.3-2.7-7.8-4.7l-0.6-0.5l8-6.1C176.9,77,181.1,78.8,185.1,79.3z"/>
			
				<linearGradient id="SVGID_3_" gradientUnits="userSpaceOnUse" x1="457.1375" y1="71.9782" x2="457.2328" y2="71.7222" gradientTransform="matrix(1 0 0 1 -300 0)">
				<stop  offset="0" style="stop-color:#D34027"/>
				<stop  offset="1" style="stop-color:#FDC831;stop-opacity:0"/>
			</linearGradient>
			<path class="st8" d="M157.4,72.1c-0.1-0.1-0.2-0.3-0.3-0.4c0,0,0,0,0,0c0,0-0.1-0.1-0.1-0.1L157.4,72.1z"/>
			
				<linearGradient id="SVGID_4_" gradientUnits="userSpaceOnUse" x1="456.4484" y1="71.9199" x2="449.0641" y2="62.2582" gradientTransform="matrix(1 0 0 1 -300 0)">
				<stop  offset="0" style="stop-color:#916527"/>
				<stop  offset="1" style="stop-color:#FCF4A4;stop-opacity:0"/>
			</linearGradient>
			<path class="st9" d="M153.4,70.1l-0.1,2.6c-0.4-0.7-0.8-1.4-1.3-2.3c-0.3-0.5-0.6-1-0.9-1.4c-0.8-1.4-1.6-2.9-2.2-4.4
				c-0.1-0.3-0.2-0.5-0.3-0.8c-1-2.1-1.7-4.2-2.1-6l1.7-1.5C149.1,60.7,151,65.9,153.4,70.1z"/>
			
				<linearGradient id="SVGID_5_" gradientUnits="userSpaceOnUse" x1="502.6204" y1="75.4956" x2="485.1704" y2="72.1975" gradientTransform="matrix(1 0 0 1 -300 0)">
				<stop  offset="0" style="stop-color:#916527"/>
				<stop  offset="1" style="stop-color:#FCF4A4;stop-opacity:0"/>
			</linearGradient>
			<path class="st10" d="M182.5,84.6c-15.7-0.2-14.5-7.7-12-12.6c0.8,0.8,1.7,1.5,2.6,2.2c3.8,2.8,8,4.6,12,5.1c3.2,0.4,6.3,0,9-1.4
				c5.7-2.8,8.5-9,8-16.1c0,0,0,0,0,0.1C202.3,63.3,205.3,85,182.5,84.6z"/>
			
				<linearGradient id="SVGID_6_" gradientUnits="userSpaceOnUse" x1="480.2903" y1="26.9625" x2="454.3893" y2="60.5562" gradientTransform="matrix(1 0 0 1 -300 0)">
				<stop  offset="0" style="stop-color:#916527"/>
				<stop  offset="1" style="stop-color:#FCF4A4;stop-opacity:0"/>
			</linearGradient>
			<path class="st11" d="M185.5,36.9c-5.9-3.1-12.2-3.9-17.3-1.4c-6.8,3.3-9.5,11.6-7.3,20.4c0.6,2.4,1.5,4.8,2.8,7.2l-0.9,0.2
				c0,0-14.9-15.1-3.4-25.7C170.4,27.5,184.3,36.2,185.5,36.9C185.5,36.9,185.5,36.9,185.5,36.9z"/>
			
				<radialGradient id="SVGID_7_" cx="698.0914" cy="50.1523" r="13.0351" gradientTransform="matrix(1.1168 0 0 1 -623.0941 0)" gradientUnits="userSpaceOnUse">
				<stop  offset="0" style="stop-color:#FDE574"/>
				<stop  offset="1" style="stop-color:#F0ED86;stop-opacity:0"/>
			</radialGradient>
			<path class="st12" d="M157.3,72.8l0.1-0.6c-0.1-0.1-0.2-0.3-0.3-0.4c0,0,0,0,0,0c-3.2-4.8-5.7-11.3-6.6-16.3
				c0-0.2-0.1-0.4-0.1-0.5c0,0,0,0,0,0c-0.9-7.6,1-14.5,5.6-18.9l2.5,2.7c-4.6,5.3-6.5,15.5,3.9,29.9
				C169.1,77.7,162.7,75.5,157.3,72.8z"/>
			<g>
				
					<linearGradient id="SVGID_8_" gradientUnits="userSpaceOnUse" x1="425.7058" y1="117.3331" x2="481.8141" y2="9.8459" gradientTransform="matrix(1 0 0 1 -300 0)">
					<stop  offset="0" style="stop-color:#916527"/>
					<stop  offset="1" style="stop-color:#FCF4A4"/>
				</linearGradient>
				<path class="st13" d="M178.9,33.3c-6.4-2.6-13-2.9-18.4-0.2c-1.6,0.8-3,1.8-4.3,3c-4.6,4.4-6.5,11.3-5.6,18.9c0,0,0,0,0,0
					c0,0.2,0.1,0.3,0.1,0.5c0.9,5,3.4,11.5,6.6,16.3c0,0,0,0,0,0c0.1,0.1,0.2,0.3,0.3,0.4l-3.8,16.5l2.4-11.5l0.9-4.5l0.1-0.6
					c-0.1-0.1-0.2-0.3-0.3-0.4c0,0,0,0,0,0c-3.2-4.8-5.7-11.3-6.6-16.3c0-0.2-0.1-0.4-0.1-0.5c0,0,0,0,0,0c-0.9-7.6,1-14.5,5.6-18.9
					c1.2-1.2,2.6-2.2,4.3-3C165.7,30.3,172.4,30.6,178.9,33.3z"/>
				
					<linearGradient id="SVGID_9_" gradientUnits="userSpaceOnUse" x1="469.3078" y1="84.0279" x2="470.0523" y2="82.6015" gradientTransform="matrix(1 0 0 1 -300 0)">
					<stop  offset="0" style="stop-color:#916527"/>
					<stop  offset="1" style="stop-color:#FCF4A4"/>
				</linearGradient>
				<path class="st14" d="M173.7,85.6c0.2,0.1,0.3,0.1,0.5,0.2c-0.3-0.1-0.5-0.2-0.8-0.3c-2.7-1.2-5.3-2.7-7.8-4.7l-0.4-0.3l0.1-0.1
					l0.6,0.5C168.4,82.9,171,84.5,173.7,85.6z"/>
				
					<linearGradient id="SVGID_10_" gradientUnits="userSpaceOnUse" x1="484.3375" y1="36.5034" x2="484.4386" y2="36.3097" gradientTransform="matrix(1 0 0 1 -300 0)">
					<stop  offset="0" style="stop-color:#916527"/>
					<stop  offset="1" style="stop-color:#FCF4A4"/>
				</linearGradient>
				<path class="st15" d="M185.5,36.9c-0.7-0.4-1.5-0.8-2.2-1.1c0.7,0.3,1.4,0.6,2,0.9C185.4,36.8,185.4,36.9,185.5,36.9
					C185.5,36.9,185.5,36.9,185.5,36.9z"/>
				
					<linearGradient id="SVGID_11_" gradientUnits="userSpaceOnUse" x1="479.3953" y1="95.2802" x2="502.098" y2="51.7884" gradientTransform="matrix(1 0 0 1 -300 0)">
					<stop  offset="0" style="stop-color:#916527"/>
					<stop  offset="1" style="stop-color:#FCF4A4"/>
				</linearGradient>
				<path class="st16" d="M202.4,63.8c-0.1,6.3-2.8,11.7-8,14.2c-2.7,1.3-5.8,1.7-9,1.4c-1.9-0.2-3.9-0.8-5.9-1.6
					c1.9,0.7,3.7,1.2,5.6,1.5c3.2,0.4,6.3,0,9-1.4c5.7-2.8,8.5-9,8-16.1c0,0,0,0,0,0.1C202.2,62.6,202.3,63.2,202.4,63.8z"/>
				
					<linearGradient id="SVGID_12_" gradientUnits="userSpaceOnUse" x1="431.3009" y1="93.2457" x2="472.7685" y2="13.8057" gradientTransform="matrix(1 0 0 1 -300 0)">
					<stop  offset="0" style="stop-color:#916527"/>
					<stop  offset="1" style="stop-color:#FCF4A4"/>
				</linearGradient>
				<path class="st17" d="M166.6,29c-0.1,0-0.3,0-0.4,0c0,0,0,0,0,0c-1.7-0.1-3.5-0.1-5.3,0.3c-1,0.2-1.9,0.5-2.8,0.8l-0.3,0.1
					l-0.3,0.1c-0.2,0.1-0.4,0.2-0.7,0.3l-1.3,0.7c-1.7,1-3.1,2.3-4.3,3.7c-0.3,0.4-0.6,0.7-0.9,1.1l-0.8,1.1
					c-0.5,0.8-0.9,1.6-1.3,2.4c-0.4,0.8-0.7,1.7-1,2.5c-0.2,0.9-0.5,1.7-0.7,2.6c-0.2,0.9-0.3,1.7-0.4,2.6c0,0.4-0.1,0.9-0.1,1.3
					l0,0.7l0,0.6l0,1.3l0.1,1.3l0,0.6l0.1,0.6l0.1,1.3v0c0,0,0,0.1,0,0.1l0,0c0,0,0,0.1,0,0.1c0,0,0,0,0,0c0.1,0.5,0.2,0.9,0.3,1.4
					c0,0,0,0,0,0c0,0.4,0.1,0.7,0.2,1.1c0.4,1.8,1.1,3.9,2.1,6c0.1,0.3,0.2,0.5,0.3,0.8c0.6,1.4,1.3,2.8,2,4.1l0,0l2.1,4l-0.1-0.1
					c-0.4-0.7-0.8-1.4-1.3-2.2c-0.3-0.5-0.6-1-0.9-1.4c-0.8-1.4-1.6-2.9-2.2-4.4c-0.1-0.3-0.2-0.5-0.3-0.8c-1-2.1-1.7-4.2-2.1-6
					c-0.1-0.4-0.1-0.8-0.2-1.1c0,0,0,0,0,0c-0.1-0.5-0.2-0.9-0.3-1.4c0,0,0,0,0,0c0,0,0-0.1,0-0.1l0,0c0,0,0-0.1,0-0.1v0l-0.1-1.3
					l-0.1-0.6l0-0.6l-0.1-1.3l0-1.3l0-0.6l0-0.7c0-0.4,0.1-0.9,0.1-1.3c0.1-0.9,0.2-1.7,0.4-2.6c0.2-0.9,0.4-1.7,0.7-2.6
					c0.3-0.8,0.6-1.7,1-2.5c0.4-0.8,0.8-1.6,1.3-2.4l0.8-1.1c0.3-0.4,0.6-0.7,0.9-1.1c1.2-1.4,2.7-2.7,4.3-3.7l1.3-0.7
					c0.2-0.1,0.4-0.2,0.7-0.3l0.3-0.1l0.3-0.1c0.9-0.4,1.9-0.6,2.8-0.8c1.9-0.4,3.9-0.5,5.8-0.3C166.5,29,166.6,29,166.6,29z"/>
			</g>
		</g>
		<g>
			<path class="st3" d="M351.6,53.8c-1.8,0-2.9,1.3-2.9,3.1c0,1.8,1.2,3.3,2.9,3.3c1.7,0,2.9-1.5,3-3.3
				C354.6,55.1,353.6,53.8,351.6,53.8z"/>
			<path class="st3" d="M358.1,40.9c-8.9,0-16.2,7.2-16.2,16.2s7.2,16.2,16.2,16.2c8.9,0,16.2-7.2,16.2-16.2S367,40.9,358.1,40.9z
				 M358,62.3h-2.6l0-0.9c0-0.6,0.4-1.4,0.6-2l-0.5-0.1c-0.2,0.6-0.3,1.5-0.7,2c-0.8,0.9-1.9,1.4-3.3,1.4c-3.2,0-5.4-2.5-5.4-5.7
				c0-3.2,2.2-5.6,5.4-5.6c1.4,0,2.5,0.5,3.3,1.3c0.4,0.5,0.5,1.3,0.7,2l0.4-0.1c-0.2-0.6-0.6-1.4-0.6-2l0-0.8h2.6V62.3z M360,62.3
				v-2.2l5.5-5.4c0.3-0.3,1-0.4,1.4-0.6l-0.2-0.4c-0.4,0.2-1,0.5-1.4,0.5h-5.1v-2.4h9.8v2.4l-5.4,5.2c-0.4,0.3-1,0.4-1.4,0.6
				l0.2,0.4c0.5-0.2,1-0.5,1.5-0.5h5.5v2.4H360z"/>
		</g>
	</g>
</g>
</svg>
