<?xml version="1.0" encoding="utf-8"?>
<!-- Generator: Adobe Illustrator 22.0.1, SVG Export Plug-In . SVG Version: 6.00 Build 0)  -->
<svg version="1.1" xmlns="http://www.w3.org/2000/svg" xmlns:xlink="http://www.w3.org/1999/xlink" x="0px" y="0px"
	 viewBox="0 0 433.8 116.8" style="enable-background:new 0 0 433.8 116.8;" xml:space="preserve">
<style type="text/css">
	.st0{display:none;}
	.st1{display:inline;fill:#151C3F;}
	.st2{fill:#FFD430;}
	.st3{fill:#FFFFFF;}
	.st4{fill:#20AF98;}
	.st5{fill-rule:evenodd;clip-rule:evenodd;fill:#FFD430;}
	.st6{fill:url(#SVGID_1_);}
	.st7{fill:url(#SVGID_2_);}
	.st8{fill:url(#SVGID_3_);}
	.st9{fill:url(#SVGID_4_);}
	.st10{fill-rule:evenodd;clip-rule:evenodd;fill:url(#SVGID_5_);}
	.st11{fill-rule:evenodd;clip-rule:evenodd;fill:url(#SVGID_6_);}
	.st12{fill:url(#SVGID_7_);}
	.st13{fill:url(#SVGID_8_);}
	.st14{fill:url(#SVGID_9_);}
	.st15{fill:url(#SVGID_10_);}
	.st16{opacity:0.3;fill:url(#SVGID_11_);}
	.st17{fill:url(#SVGID_12_);}
	.st18{fill:url(#SVGID_13_);}
	.st19{fill:url(#SVGID_14_);}
	.st20{fill:url(#SVGID_15_);}
	.st21{fill:url(#SVGID_16_);}
	.st22{fill-rule:evenodd;clip-rule:evenodd;fill:url(#SVGID_17_);}
	.st23{fill-rule:evenodd;clip-rule:evenodd;fill:url(#SVGID_18_);}
	.st24{fill:url(#SVGID_19_);}
	.st25{fill:url(#SVGID_20_);}
	.st26{fill:url(#SVGID_21_);}
	.st27{fill:url(#SVGID_22_);}
	.st28{opacity:0.3;fill:url(#SVGID_23_);}
	.st29{fill:url(#SVGID_24_);}
	.st30{opacity:0.35;fill:#FFD430;}
	.st31{fill:url(#SVGID_25_);}
	.st32{fill:url(#SVGID_26_);}
	.st33{fill:url(#SVGID_27_);}
	.st34{fill:url(#SVGID_28_);}
	.st35{fill-rule:evenodd;clip-rule:evenodd;fill:url(#SVGID_29_);}
	.st36{fill-rule:evenodd;clip-rule:evenodd;fill:url(#SVGID_30_);}
	.st37{fill:url(#SVGID_31_);}
	.st38{fill:url(#SVGID_32_);}
	.st39{fill:url(#SVGID_33_);}
	.st40{fill:url(#SVGID_34_);}
	.st41{opacity:0.3;fill:url(#SVGID_35_);}
	.st42{fill:url(#SVGID_36_);}
	.st43{opacity:0.35;}
	.st44{opacity:0.95;fill:#FFD430;}
	.st45{opacity:0.5;}
	.st46{fill:url(#SVGID_37_);}
	.st47{fill:url(#SVGID_38_);}
	.st48{fill:url(#SVGID_39_);}
	.st49{fill:url(#SVGID_40_);}
	.st50{fill-rule:evenodd;clip-rule:evenodd;fill:url(#SVGID_41_);}
	.st51{fill-rule:evenodd;clip-rule:evenodd;fill:url(#SVGID_42_);}
	.st52{fill:url(#SVGID_43_);}
	.st53{fill:url(#SVGID_44_);}
	.st54{fill:url(#SVGID_45_);}
	.st55{fill:url(#SVGID_46_);}
	.st56{opacity:0.3;fill:url(#SVGID_47_);}
	.st57{fill:url(#SVGID_48_);}
	.st58{fill:url(#SVGID_49_);}
	.st59{fill:url(#SVGID_50_);}
	.st60{fill:url(#SVGID_51_);}
	.st61{fill:url(#SVGID_52_);}
	.st62{fill-rule:evenodd;clip-rule:evenodd;fill:url(#SVGID_53_);}
	.st63{fill-rule:evenodd;clip-rule:evenodd;fill:url(#SVGID_54_);}
	.st64{fill:url(#SVGID_55_);}
	.st65{fill:url(#SVGID_56_);}
	.st66{fill:url(#SVGID_57_);}
	.st67{fill:url(#SVGID_58_);}
	.st68{opacity:0.3;fill:url(#SVGID_59_);}
	.st69{fill:url(#SVGID_60_);}
	.st70{fill:none;stroke:#394442;stroke-width:0.5;stroke-miterlimit:10;}
	.st71{fill:#231F20;}
	.st72{fill-rule:evenodd;clip-rule:evenodd;fill:#FFFFFF;}
	.st73{fill:url(#SVGID_61_);}
	.st74{fill:url(#SVGID_62_);}
	.st75{fill:url(#SVGID_63_);}
	.st76{fill:url(#SVGID_64_);}
	.st77{fill-rule:evenodd;clip-rule:evenodd;fill:url(#SVGID_65_);}
	.st78{fill-rule:evenodd;clip-rule:evenodd;fill:url(#SVGID_66_);}
	.st79{fill:url(#SVGID_67_);}
	.st80{fill:url(#SVGID_68_);}
	.st81{fill:url(#SVGID_69_);}
	.st82{fill:url(#SVGID_70_);}
	.st83{opacity:0.3;fill:url(#SVGID_71_);}
	.st84{fill:url(#SVGID_72_);}
	.st85{fill:url(#SVGID_73_);}
	.st86{fill:url(#SVGID_74_);}
	.st87{fill:url(#SVGID_75_);}
	.st88{fill:url(#SVGID_76_);}
	.st89{fill-rule:evenodd;clip-rule:evenodd;fill:url(#SVGID_77_);}
	.st90{fill-rule:evenodd;clip-rule:evenodd;fill:url(#SVGID_78_);}
	.st91{fill:url(#SVGID_79_);}
	.st92{fill:url(#SVGID_80_);}
	.st93{fill:url(#SVGID_81_);}
	.st94{fill:url(#SVGID_82_);}
	.st95{opacity:0.3;fill:url(#SVGID_83_);}
	.st96{fill:url(#SVGID_84_);}
	.st97{fill-rule:evenodd;clip-rule:evenodd;fill:#231F20;}
	.st98{fill:url(#SVGID_85_);}
	.st99{fill:url(#SVGID_86_);}
	.st100{fill:url(#SVGID_87_);}
	.st101{fill:url(#SVGID_88_);}
	.st102{fill-rule:evenodd;clip-rule:evenodd;fill:url(#SVGID_89_);}
	.st103{fill-rule:evenodd;clip-rule:evenodd;fill:url(#SVGID_90_);}
	.st104{fill:url(#SVGID_91_);}
	.st105{fill:url(#SVGID_92_);}
	.st106{fill:url(#SVGID_93_);}
	.st107{fill:url(#SVGID_94_);}
	.st108{opacity:0.3;fill:url(#SVGID_95_);}
	.st109{fill:url(#SVGID_96_);}
	.st110{fill:url(#SVGID_97_);}
	.st111{fill:url(#SVGID_98_);}
	.st112{fill:url(#SVGID_99_);}
	.st113{fill:url(#SVGID_100_);}
	.st114{fill-rule:evenodd;clip-rule:evenodd;fill:url(#SVGID_101_);}
	.st115{fill-rule:evenodd;clip-rule:evenodd;fill:url(#SVGID_102_);}
	.st116{fill:url(#SVGID_103_);}
	.st117{fill:url(#SVGID_104_);}
	.st118{fill:url(#SVGID_105_);}
	.st119{fill:url(#SVGID_106_);}
	.st120{opacity:0.3;fill:url(#SVGID_107_);}
	.st121{fill:url(#SVGID_108_);}
	.st122{fill:none;stroke:#20AF98;stroke-width:5;stroke-miterlimit:10;}
	.st123{fill:url(#SVGID_109_);}
	.st124{fill:url(#SVGID_110_);}
	.st125{fill:url(#SVGID_111_);}
	.st126{fill:url(#SVGID_112_);}
	.st127{fill-rule:evenodd;clip-rule:evenodd;fill:url(#SVGID_113_);}
	.st128{fill-rule:evenodd;clip-rule:evenodd;fill:url(#SVGID_114_);}
	.st129{fill:url(#SVGID_115_);}
	.st130{fill:url(#SVGID_116_);}
	.st131{fill:url(#SVGID_117_);}
	.st132{fill:url(#SVGID_118_);}
	.st133{opacity:0.3;fill:url(#SVGID_119_);}
	.st134{fill:url(#SVGID_120_);}
	.st135{fill:url(#SVGID_121_);}
	.st136{fill:url(#SVGID_122_);}
	.st137{fill:url(#SVGID_123_);}
	.st138{fill:url(#SVGID_124_);}
	.st139{fill-rule:evenodd;clip-rule:evenodd;fill:url(#SVGID_125_);}
	.st140{fill-rule:evenodd;clip-rule:evenodd;fill:url(#SVGID_126_);}
	.st141{fill:url(#SVGID_127_);}
	.st142{fill:url(#SVGID_128_);}
	.st143{fill:url(#SVGID_129_);}
	.st144{fill:url(#SVGID_130_);}
	.st145{opacity:0.3;fill:url(#SVGID_131_);}
	.st146{fill:url(#SVGID_132_);}
	.st147{fill:url(#SVGID_133_);}
	.st148{fill:url(#SVGID_134_);}
	.st149{fill:url(#SVGID_135_);}
	.st150{fill:url(#SVGID_136_);}
	.st151{fill-rule:evenodd;clip-rule:evenodd;fill:url(#SVGID_137_);}
	.st152{fill-rule:evenodd;clip-rule:evenodd;fill:url(#SVGID_138_);}
	.st153{fill:url(#SVGID_139_);}
	.st154{fill:url(#SVGID_140_);}
	.st155{fill:url(#SVGID_141_);}
	.st156{fill:url(#SVGID_142_);}
	.st157{opacity:0.3;fill:url(#SVGID_143_);}
	.st158{fill:url(#SVGID_144_);}
</style>
<g id="Layer_2" class="st0">
	<rect x="-5040.6" y="-1370.7" class="st1" width="12408.3" height="5037.3"/>
</g>
<g id="Layer_1">
	<g>
		<path class="st3" d="M71.2,44.5c0,1.8-1,3.8-1.6,5.6l1.3,0.4c0.5-1.7,0.9-4.1,2.1-5.4c2.1-2.2,5.1-3.8,9.1-3.8
			c8.5,0,14.6,7.3,14.8,15.8c0.2,8.7-6,15.6-14.8,15.6c-3.9,0-6.9-1.4-9.1-3.7c-1.2-1.2-1.5-3.7-2.1-5.4l-1.2,0.4
			c0.5,1.7,1.5,3.8,1.5,5.6v2.1L64,71.7V28.9l7.2,0.1V44.5z M89.7,57.3c0-5-3.1-9.2-8.6-9.2s-8.6,4.1-8.6,9.2c0,5,3.1,8.7,8.6,8.7
			S89.7,62.2,89.7,57.3z"/>
		<path class="st3" d="M99.9,28.9h7.2v7.7h-7.2V28.9z M99.9,41.2h7.2v30.6h-7.2V41.2z"/>
		<path class="st3" d="M125.3,72.7c-8.9,0-15.3-7.1-15.3-15.9c0-8.8,6.3-15.5,15.3-15.5c4.1,0,7.4,1.4,9.6,3.7
			c1.2,1.2,1.6,3.7,2.2,5.3l1.2-0.4c-0.7-1.7-1.7-3.7-1.8-5.5l-0.1-2.2h7.3v30.4c-0.1,8-4.7,14-17,14c-10,0-15.4-4.7-15.9-12.1h7.7
			c0.7,4.3,3.9,5.3,7.9,5.3c7,0,10.1-3,10.1-8c0-0.9,0-1.7,0.1-2.5c0.1-1.7,1.2-3.7,1.8-5.3l-1.2-0.5c-0.6,1.7-0.9,4-2.1,5.3
			C132.7,71.2,129.4,72.7,125.3,72.7z M126.2,65.8c5.6,0,8.6-3.3,8.9-7.9v-1.5c-0.3-4.6-3.4-8-8.9-8c-5.9,0-8.9,3.8-8.9,8.7
			C117.2,62,120.3,65.8,126.2,65.8z"/>
		<path class="st3" d="M227,41.4c6,0,10.7,3.4,10.7,10.2v20.3h-7.3V56.7c0-5.7-2.1-8.2-6.4-8.2c-4.7,0-8.7,2.5-8.7,8.2v15.1h-7.2
			V42.2h7.2v0.5c0,2.4-1.2,5.2-2.1,7.4l1.2,0.5c0.9-2.2,1.7-5.4,3.6-6.9C220.6,41.8,223.2,41.4,227,41.4z"/>
		<path class="st3" d="M266.4,28.9l7.3-0.1v42.9l-7.3,0.1v-2.1c0-1.8,1-3.8,1.6-5.6l-1.3-0.4c-0.5,1.7-0.8,4.1-2.1,5.4
			c-2.2,2.3-5.2,3.7-9.2,3.7c-8.9,0-15-6.9-14.8-15.6c0.2-8.5,6.2-15.8,14.7-15.8c4,0,7,1.5,9.2,3.8c1.2,1.2,1.6,3.7,2.2,5.3
			l1.2-0.4c-0.6-1.7-1.6-3.8-1.6-5.6V28.9z M265.1,57.3c0-5-3.1-9.2-8.7-9.2c-5.6,0-8.5,4.1-8.5,9.2c0,5,3,8.7,8.5,8.7
			C262,66,265.1,62.2,265.1,57.3z"/>
		<path class="st3" d="M276.7,56.8c0-8.8,7-15.5,17-15.5c10.3,0,16.7,7.2,16.6,15.4c0,0.6,0,2-0.1,2.5l-24.9-0.1c0,3.3,3,7.3,9,7.3
			c4,0,6.4-1.7,7-3.2h8.3c-0.9,3.1-5.3,9.4-14.5,9.4C283.1,72.7,276.7,65.7,276.7,56.8z M301.8,54.4c0-4.1-3-7.3-8-7.3
			c-5,0-8.5,3.5-8.5,7.3H301.8z"/>
		<path class="st3" d="M335.4,41.4v6.7c-7.3,0-15,2.6-15,10.8v12.9h-7.2V42.2h7.2v0.9c0,2.2-1.2,5-2.1,7l1.2,0.5
			c0.9-2.1,1.8-5,3.7-6.4C326.4,41.9,329.6,41.4,335.4,41.4z"/>
		<g>
			<g>
				<g>
					<path class="st72" d="M174,54l14.8,0.1l5.5-6.2l-3.8-6c-0.5-0.9-1.5-1.3-2.5-1.1l-16.3,3.6c-1.6,0.4-2.4,2.2-1.5,3.6L174,54z"
						/>
					<path class="st72" d="M200.1,57l-4.8-7.6l-4.5,7.2l-0.4,0.6l-0.9,0l-13.2,0.4l8.2,13.1c0.8,1.3,2.6,1.5,3.7,0.5L199.7,60
						C200.5,59.2,200.7,58,200.1,57z"/>
				</g>
			</g>
			<path class="st72" d="M202.1,74.5L202.1,74.5c-0.4,1.2-0.8,2.3-1.3,3.3c0,0.1-0.1,0.2-0.1,0.3c0,0.1-0.1,0.2-0.1,0.3
				c0,0,0,0.1-0.1,0.1c0,0,0,0,0,0.1c-1.6,2.9-4,5.2-7.1,6.7c-5.5,2.7-12.2,2.3-18.6-0.5c-2.6-1.1-5.2-2.7-7.6-4.5l-0.6-0.5
				l-3.1,2.4l-0.1,0.1l-0.5,0.4l-7.1,5.3l2.4-11.2l0.9-4.4l0.1-0.6c-0.1-0.1-0.2-0.3-0.3-0.4c0,0,0,0,0,0c-3.1-4.7-5.5-11-6.4-15.9
				c0-0.2-0.1-0.3-0.1-0.5c0,0,0,0,0,0c-0.9-7.4,1-14.1,5.4-18.4c1.2-1.1,2.6-2.1,4.1-2.9c7.2-3.5,16.5-1.8,24.5,3.8c0,0,0,0,0.1,0
				c-5.7-3.1-11.9-3.8-16.8-1.3c-6.6,3.3-9.2,11.2-7.1,19.8c0.6,2.3,1.5,4.7,2.7,7c0.3,0.5,0.6,1.1,0.9,1.6c1.6,2.7,3.6,5,5.7,7
				c0.8,0.8,1.7,1.5,2.5,2.1c3.7,2.7,7.7,4.5,11.7,5c3.1,0.4,6.1,0,8.7-1.3c5.5-2.7,8.2-8.7,7.8-15.6c0,0,0,0,0,0.1
				c0.2,1.2,0.4,2.4,0.5,3.6c0,0.2,0,0.4,0,0.6C203.2,68.4,203.1,71.4,202.1,74.5z"/>
			<path class="st3" d="M168.1,29.9c-2.6,0.2-5.1,0.9-7.3,2c-7.9,3.9-12,12.7-10.8,23.2l0,0.4l0.1,0.1c0,0.2,0.1,0.5,0.1,0.7
				c0.8,4.3,2.7,9.4,5,13.5c0,0,0,0.1,0,0.1c0.4,0.8,0.9,1.6,1.4,2.3l-2.1,14.3l0.4-8.4l0.3-5.6c0,0,0,0,0-0.1
				c-0.4-0.7-0.8-1.4-1.3-2.2c-0.3-0.5-0.6-0.9-0.8-1.4c-0.8-1.4-1.5-2.8-2.1-4.3c-0.1-0.3-0.2-0.5-0.3-0.8c-0.9-2.1-1.7-4.1-2-5.8
				c-0.1-0.4-0.1-0.7-0.2-1.1c0,0,0,0,0,0c-0.1-0.4-0.2-0.9-0.3-1.4c0,0,0,0,0,0c0,0,0-0.1,0-0.1l0,0c0,0,0-0.1,0-0.1v0l-0.1-1.2
				l-0.1-0.6l0-0.6l-0.1-1.3l0-1.3l0-0.6l0-0.6c0-0.4,0.1-0.8,0.1-1.3c0.1-0.8,0.2-1.7,0.4-2.5c0.2-0.8,0.4-1.7,0.6-2.5
				c0.3-0.8,0.6-1.6,1-2.4c0.3-0.8,0.8-1.6,1.2-2.3l0.8-1.1c0.3-0.4,0.6-0.7,0.8-1.1c1.2-1.4,2.6-2.6,4.2-3.6l1.2-0.7
				c0.2-0.1,0.4-0.2,0.6-0.3l0.3-0.1l0.3-0.1c0.9-0.4,1.8-0.6,2.7-0.8c1.9-0.4,3.8-0.5,5.6-0.3C167.9,29.9,168,29.9,168.1,29.9z"/>
			
				<linearGradient id="SVGID_1_" gradientUnits="userSpaceOnUse" x1="-135.1888" y1="70.4175" x2="-142.0815" y2="59.3174" gradientTransform="matrix(1 0 0 1 300 0)">
				<stop  offset="0" style="stop-color:#916527"/>
				<stop  offset="1" style="stop-color:#FCF4A4;stop-opacity:0"/>
			</linearGradient>
			<path class="st6" d="M162.5,56l-3.4,15.7l0,0c-0.1-0.1-0.2-0.3-0.3-0.4c0,0,0,0,0,0c0,0,0-0.1-0.1-0.1l0,0
				c-3.1-4.6-5.5-10.9-6.3-15.7L162.5,56z"/>
			
				<linearGradient id="SVGID_2_" gradientUnits="userSpaceOnUse" x1="-135.2834" y1="79.5935" x2="-123.9369" y2="79.2022" gradientTransform="matrix(1 0 0 1 300 0)">
				<stop  offset="0" style="stop-color:#916527"/>
				<stop  offset="1" style="stop-color:#FCF4A4;stop-opacity:0"/>
			</linearGradient>
			<path class="st7" d="M186,78.7l-11.3,6c-2.6-1.1-5.2-2.7-7.6-4.5l-0.6-0.5l7.8-6C178,76.5,182.1,78.2,186,78.7z"/>
			
				<linearGradient id="SVGID_3_" gradientUnits="userSpaceOnUse" x1="-141.1566" y1="71.5906" x2="-141.0639" y2="71.3419" gradientTransform="matrix(1 0 0 1 300 0)">
				<stop  offset="0" style="stop-color:#D34027"/>
				<stop  offset="1" style="stop-color:#FDC831;stop-opacity:0"/>
			</linearGradient>
			<path class="st8" d="M159.1,71.7c-0.1-0.1-0.2-0.3-0.3-0.4c0,0,0,0,0,0c0,0,0-0.1-0.1-0.1L159.1,71.7z"/>
			
				<linearGradient id="SVGID_4_" gradientUnits="userSpaceOnUse" x1="-141.826" y1="71.5339" x2="-148.9995" y2="62.1481" gradientTransform="matrix(1 0 0 1 300 0)">
				<stop  offset="0" style="stop-color:#916527"/>
				<stop  offset="1" style="stop-color:#FCF4A4;stop-opacity:0"/>
			</linearGradient>
			<path class="st9" d="M155.2,69.8l-0.1,2.5c-0.4-0.7-0.8-1.4-1.3-2.2c-0.3-0.5-0.6-0.9-0.8-1.4c-0.8-1.4-1.5-2.8-2.1-4.3
				c-0.1-0.3-0.2-0.5-0.3-0.8c-0.9-2.1-1.7-4.1-2-5.8l1.7-1.5C151,60.6,152.9,65.7,155.2,69.8z"/>
			
				<linearGradient id="SVGID_5_" gradientUnits="userSpaceOnUse" x1="-96.9722" y1="75.0076" x2="-113.9239" y2="71.8036" gradientTransform="matrix(1 0 0 1 300 0)">
				<stop  offset="0" style="stop-color:#916527"/>
				<stop  offset="1" style="stop-color:#FCF4A4;stop-opacity:0"/>
			</linearGradient>
			<path class="st10" d="M183.5,83.9c-15.3-0.2-14.1-7.4-11.7-12.2c0.8,0.8,1.7,1.5,2.5,2.1c3.7,2.7,7.7,4.5,11.7,5
				c3.1,0.4,6.1,0,8.7-1.3c5.5-2.7,8.2-8.7,7.8-15.6c0,0,0,0,0,0.1C202.7,63.2,205.6,84.2,183.5,83.9z"/>
			
				<linearGradient id="SVGID_6_" gradientUnits="userSpaceOnUse" x1="-118.6647" y1="27.8601" x2="-143.8263" y2="60.4946" gradientTransform="matrix(1 0 0 1 300 0)">
				<stop  offset="0" style="stop-color:#916527"/>
				<stop  offset="1" style="stop-color:#FCF4A4;stop-opacity:0"/>
			</linearGradient>
			<path class="st11" d="M186.4,37.6c-5.7-3.1-11.9-3.8-16.8-1.3c-6.6,3.3-9.2,11.2-7.1,19.8c0.6,2.3,1.5,4.7,2.7,7l-0.9,0.2
				c0,0-14.5-14.7-3.3-25C171.7,28.4,185.3,36.8,186.4,37.6C186.4,37.5,186.4,37.5,186.4,37.6z"/>
			
				<radialGradient id="SVGID_7_" cx="162.3658" cy="50.3877" r="12.663" gradientTransform="matrix(1.1168 0 0 1 -23.0941 0)" gradientUnits="userSpaceOnUse">
				<stop  offset="0" style="stop-color:#FDE574"/>
				<stop  offset="1" style="stop-color:#F0ED86;stop-opacity:0"/>
			</radialGradient>
			<path class="st12" d="M159,72.3l0.1-0.6c-0.1-0.1-0.2-0.3-0.3-0.4c0,0,0,0,0,0c-3.1-4.7-5.5-11-6.4-15.9c0-0.2-0.1-0.3-0.1-0.5
				c0,0,0,0,0,0c-0.9-7.4,1-14.1,5.4-18.4l2.4,2.6c-4.4,5.1-6.3,15.1,3.8,29.1C170.5,77.2,164.3,75,159,72.3z"/>
			<g>
				
					<linearGradient id="SVGID_8_" gradientUnits="userSpaceOnUse" x1="-171.6909" y1="115.6507" x2="-117.1844" y2="11.2321" gradientTransform="matrix(1 0 0 1 300 0)">
					<stop  offset="0" style="stop-color:#916527"/>
					<stop  offset="1" style="stop-color:#FCF4A4"/>
				</linearGradient>
				<path class="st13" d="M180,34c-6.2-2.5-12.6-2.8-17.9-0.2c-1.6,0.8-2.9,1.7-4.1,2.9c-4.5,4.3-6.3,11-5.4,18.4c0,0,0,0,0,0
					c0,0.2,0.1,0.3,0.1,0.5c0.9,4.9,3.3,11.2,6.4,15.9c0,0,0,0,0,0c0.1,0.1,0.2,0.3,0.3,0.4l-3.7,16.1l2.4-11.2l0.9-4.4l0.1-0.6
					c-0.1-0.1-0.2-0.3-0.3-0.4c0,0,0,0,0,0c-3.1-4.7-5.5-11-6.4-15.9c0-0.2-0.1-0.3-0.1-0.5c0,0,0,0,0,0c-0.9-7.4,1-14.1,5.4-18.4
					c1.2-1.1,2.6-2.1,4.1-2.9C167.2,31.1,173.7,31.4,180,34z"/>
				
					<linearGradient id="SVGID_9_" gradientUnits="userSpaceOnUse" x1="-129.3337" y1="83.2962" x2="-128.6104" y2="81.9106" gradientTransform="matrix(1 0 0 1 300 0)">
					<stop  offset="0" style="stop-color:#916527"/>
					<stop  offset="1" style="stop-color:#FCF4A4"/>
				</linearGradient>
				<path class="st14" d="M175,84.9c0.2,0.1,0.3,0.1,0.5,0.2c-0.3-0.1-0.5-0.2-0.8-0.3c-2.6-1.1-5.2-2.7-7.6-4.5l-0.4-0.3l0.1-0.1
					l0.6,0.5C169.8,82.2,172.4,83.7,175,84.9z"/>
				
					<linearGradient id="SVGID_10_" gradientUnits="userSpaceOnUse" x1="-114.7331" y1="37.1286" x2="-114.6348" y2="36.9404" gradientTransform="matrix(1 0 0 1 300 0)">
					<stop  offset="0" style="stop-color:#916527"/>
					<stop  offset="1" style="stop-color:#FCF4A4"/>
				</linearGradient>
				<path class="st15" d="M186.4,37.6c-0.7-0.4-1.4-0.7-2.2-1c0.7,0.3,1.3,0.6,2,0.9C186.3,37.5,186.3,37.5,186.4,37.6
					C186.4,37.5,186.4,37.5,186.4,37.6z"/>
				
					<linearGradient id="SVGID_11_" gradientUnits="userSpaceOnUse" x1="-119.5342" y1="94.2273" x2="-97.4796" y2="51.9771" gradientTransform="matrix(1 0 0 1 300 0)">
					<stop  offset="0" style="stop-color:#916527"/>
					<stop  offset="1" style="stop-color:#FCF4A4"/>
				</linearGradient>
				<path class="st16" d="M202.8,63.7c-0.1,6.1-2.8,11.3-7.8,13.8c-2.6,1.3-5.7,1.7-8.7,1.3c-1.9-0.2-3.8-0.8-5.7-1.5
					c1.8,0.7,3.6,1.2,5.4,1.4c3.1,0.4,6.1,0,8.7-1.3c5.5-2.7,8.2-8.7,7.8-15.6c0,0,0,0,0,0.1C202.7,62.5,202.8,63.1,202.8,63.7z"/>
				
					<linearGradient id="SVGID_12_" gradientUnits="userSpaceOnUse" x1="-166.2556" y1="92.251" x2="-125.9718" y2="15.0789" gradientTransform="matrix(1 0 0 1 300 0)">
					<stop  offset="0" style="stop-color:#916527"/>
					<stop  offset="1" style="stop-color:#FCF4A4"/>
				</linearGradient>
				<path class="st17" d="M168.1,29.9c-0.1,0-0.3,0-0.4,0c0,0,0,0,0,0c-1.7-0.1-3.4-0.1-5.1,0.3c-0.9,0.2-1.9,0.5-2.7,0.8l-0.3,0.1
					l-0.3,0.1c-0.2,0.1-0.4,0.2-0.6,0.3l-1.2,0.7c-1.6,1-3,2.2-4.2,3.6c-0.3,0.3-0.6,0.7-0.8,1.1l-0.8,1.1c-0.4,0.8-0.9,1.5-1.2,2.3
					c-0.4,0.8-0.7,1.6-1,2.4c-0.2,0.8-0.5,1.6-0.6,2.5c-0.2,0.8-0.3,1.7-0.4,2.5c0,0.4-0.1,0.8-0.1,1.3l0,0.6l0,0.6l0,1.3l0.1,1.3
					l0,0.6l0.1,0.6l0.1,1.2v0c0,0,0,0.1,0,0.1l0,0c0,0,0,0.1,0,0.1c0,0,0,0,0,0c0.1,0.5,0.2,0.9,0.3,1.4c0,0,0,0,0,0
					c0,0.3,0.1,0.7,0.2,1.1c0.3,1.7,1.1,3.8,2,5.8c0.1,0.3,0.2,0.5,0.3,0.8c0.6,1.4,1.2,2.7,2,4l0,0l2.1,3.9l-0.1-0.1
					c-0.4-0.6-0.8-1.4-1.2-2.2c-0.3-0.5-0.6-0.9-0.8-1.4c-0.8-1.4-1.5-2.8-2.1-4.3c-0.1-0.3-0.2-0.5-0.3-0.8c-0.9-2.1-1.7-4.1-2-5.8
					c-0.1-0.4-0.1-0.7-0.2-1.1c0,0,0,0,0,0c-0.1-0.4-0.2-0.9-0.3-1.4c0,0,0,0,0,0c0,0,0-0.1,0-0.1l0,0c0,0,0-0.1,0-0.1v0l-0.1-1.2
					l-0.1-0.6l0-0.6l-0.1-1.3l0-1.3l0-0.6l0-0.6c0-0.4,0.1-0.8,0.1-1.3c0.1-0.8,0.2-1.7,0.4-2.5c0.2-0.8,0.4-1.7,0.6-2.5
					c0.3-0.8,0.6-1.6,1-2.4c0.3-0.8,0.8-1.6,1.2-2.3l0.8-1.1c0.3-0.4,0.6-0.7,0.8-1.1c1.2-1.4,2.6-2.6,4.2-3.6l1.2-0.7
					c0.2-0.1,0.4-0.2,0.6-0.3l0.3-0.1l0.3-0.1c0.9-0.4,1.8-0.6,2.7-0.8c1.9-0.4,3.8-0.5,5.6-0.3C167.9,29.9,168,29.9,168.1,29.9z"/>
			</g>
		</g>
		<g>
			<path class="st4" d="M347.8,53.9c-1.7,0-2.8,1.3-2.8,3c0,1.7,1.1,3.2,2.8,3.2c1.7,0,2.8-1.5,2.9-3.2
				C350.7,55.2,349.7,53.9,347.8,53.9z"/>
			<path class="st4" d="M354.1,41.4c-8.7,0-15.7,7-15.7,15.7s7,15.7,15.7,15.7c8.7,0,15.7-7,15.7-15.7S362.8,41.4,354.1,41.4z
				 M354,62.2h-2.5l0-0.8c0-0.6,0.4-1.4,0.6-1.9l-0.5-0.1c-0.2,0.6-0.3,1.4-0.7,1.9c-0.8,0.8-1.8,1.4-3.2,1.4
				c-3.1,0-5.2-2.5-5.2-5.5c0-3.1,2.2-5.4,5.2-5.4c1.4,0,2.5,0.5,3.2,1.3c0.4,0.5,0.5,1.3,0.7,1.9l0.4-0.1c-0.2-0.6-0.6-1.3-0.6-1.9
				l0-0.8h2.5V62.2z M355.9,62.2V60l5.3-5.2c0.3-0.3,0.9-0.4,1.3-0.6l-0.2-0.4c-0.4,0.2-0.9,0.5-1.4,0.5h-5v-2.3h9.5v2.3l-5.3,5.1
				c-0.4,0.3-0.9,0.4-1.4,0.6l0.2,0.4c0.5-0.2,1-0.5,1.4-0.5h5.3v2.3H355.9z"/>
		</g>
	</g>
</g>
</svg>
